<?xml version="1.0" encoding="UTF-8" standalone="no"?>
<svg width="224px" height="51px" viewBox="0 0 224 51" version="1.1" xmlns="http://www.w3.org/2000/svg" xmlns:xlink="http://www.w3.org/1999/xlink">
    <!-- Generator: Sketch 3.8.3 (29802) - http://www.bohemiancoding.com/sketch -->
    <title>eHealth_logo_white</title>
    <desc>Created with Sketch.</desc>
    <defs>
        <polygon id="path-1" points="106.3845 49 0.06 49 0.06 0.196 212.709 0.196 212.709 49"></polygon>
    </defs>
    <g id="Page-1" stroke="none" stroke-width="1" fill="none" fill-rule="evenodd">
        <g id="eHealth_logo_white">
            <g id="Group-4" transform="translate(0.000000, 2.000000)">
                <mask id="mask-2" fill="white">
                    <use xlink:href="#path-1"></use>
                </mask>
                <g id="Clip-2"></g>
                <path d="M181.958,0.196 L187.591,0.196 L187.591,17.599 C187.962,17.106 188.361,16.638 188.782,16.194 C189.564,15.374 190.438,14.624 191.397,13.947 C192.384,13.258 193.512,12.737 194.783,12.395 C196.038,12.052 197.436,11.885 198.972,11.885 C200.04,11.885 201.055,11.974 202.024,12.146 C202.993,12.32 203.899,12.578 204.741,12.925 C205.587,13.271 206.373,13.692 207.088,14.185 C207.813,14.681 208.475,15.247 209.061,15.886 C209.652,16.522 210.175,17.223 210.625,17.986 L210.628,17.986 C211.081,18.745 211.464,19.566 211.774,20.439 C212.082,21.31 212.316,22.233 212.472,23.206 C212.627,24.175 212.709,25.179 212.709,26.221 L212.709,48.193 L206.602,48.193 L206.602,27.493 C206.602,25.933 206.401,24.546 206.005,23.323 C205.611,22.11 205.024,21.061 204.243,20.169 C203.464,19.288 202.52,18.628 201.412,18.19 C200.288,17.743 198.982,17.52 197.496,17.52 C196.785,17.52 196.105,17.581 195.451,17.706 C194.798,17.827 194.163,18.013 193.556,18.257 C192.953,18.499 192.384,18.796 191.864,19.145 C191.333,19.502 190.845,19.903 190.407,20.356 C189.957,20.811 189.561,21.316 189.218,21.864 C188.871,22.409 188.577,23.005 188.33,23.645 C188.085,24.288 187.901,24.961 187.778,25.668 C187.654,26.376 187.591,27.121 187.591,27.894 L187.591,48.193 L181.488,48.193 L181.488,0.196 L181.958,0.196 L181.958,0.196 Z M151.296,0.196 L156.929,0.196 L156.929,48.193 L150.821,48.193 L150.821,0.196 L151.296,0.196 L151.296,0.196 Z M128.657,48.929 C127.837,48.929 127.016,48.873 126.199,48.756 C125.381,48.644 124.57,48.47 123.772,48.242 C122.965,48.013 122.205,47.72 121.482,47.366 C120.766,47.013 120.089,46.598 119.462,46.12 C118.832,45.642 118.263,45.107 117.757,44.522 C117.251,43.931 116.803,43.286 116.424,42.589 C116.029,41.882 115.741,41.114 115.547,40.29 C115.355,39.472 115.257,38.601 115.257,37.672 L115.257,37.542 C115.257,36.569 115.349,35.656 115.536,34.804 C115.721,33.946 116.007,33.145 116.377,32.404 C116.753,31.669 117.206,30.993 117.743,30.375 C118.274,29.761 118.886,29.208 119.572,28.718 C120.256,28.234 121.006,27.802 121.812,27.433 C122.621,27.063 123.492,26.753 124.413,26.501 C125.335,26.249 126.315,26.062 127.338,25.933 C128.352,25.81 129.418,25.745 130.532,25.745 C131.651,25.745 132.701,25.781 133.678,25.849 C134.658,25.916 135.566,26.019 136.401,26.156 C137.223,26.289 138.036,26.446 138.84,26.626 L138.84,26.632 C139.451,26.767 140.05,26.915 140.641,27.073 L140.641,26.624 C140.641,25.142 140.428,23.844 139.999,22.731 C139.582,21.637 138.952,20.718 138.122,19.979 C137.282,19.233 136.257,18.671 135.061,18.296 C133.848,17.914 132.449,17.722 130.868,17.722 C129.857,17.722 128.895,17.776 127.985,17.886 C127.069,17.994 126.209,18.157 125.398,18.373 C124.574,18.595 123.758,18.854 122.95,19.149 C122.139,19.448 121.342,19.78 120.552,20.153 L120.086,20.376 L119.905,19.888 L118.37,15.667 L118.217,15.259 L118.609,15.077 C119.59,14.624 120.571,14.217 121.546,13.854 C122.534,13.491 123.521,13.175 124.515,12.903 C125.519,12.631 126.598,12.427 127.751,12.292 C128.898,12.155 130.114,12.085 131.402,12.085 C133.908,12.085 136.118,12.411 138.032,13.063 C139.968,13.726 141.602,14.719 142.922,16.042 C144.175,17.295 145.118,18.804 145.745,20.574 C146.365,22.322 146.679,24.317 146.679,26.558 L146.679,48.193 L140.641,48.193 L140.641,43.851 C140.227,44.296 139.78,44.719 139.299,45.126 C138.472,45.831 137.537,46.485 136.493,47.093 C135.439,47.706 134.251,48.169 132.941,48.474 C131.637,48.776 130.207,48.929 128.657,48.929 L128.657,48.929 Z M129.662,43.831 C130.444,43.831 131.198,43.777 131.919,43.669 C132.645,43.56 133.342,43.396 134.003,43.185 C134.669,42.969 135.299,42.71 135.878,42.405 C136.454,42.103 137.003,41.751 137.506,41.351 C138.005,40.962 138.451,40.534 138.84,40.063 L138.843,40.063 C139.231,39.603 139.568,39.103 139.858,38.561 C140.142,38.026 140.352,37.46 140.494,36.869 C140.634,36.281 140.707,35.656 140.707,34.993 L140.707,32.142 C140.162,31.999 139.59,31.856 138.988,31.718 C138.259,31.556 137.483,31.395 136.674,31.239 C135.868,31.087 134.994,30.972 134.052,30.897 C133.122,30.819 132.127,30.784 131.065,30.784 C129.499,30.784 128.109,30.936 126.91,31.239 C125.717,31.548 124.705,32.001 123.874,32.599 C123.058,33.188 122.44,33.878 122.035,34.654 C121.632,35.427 121.426,36.295 121.426,37.274 L121.426,37.407 C121.426,37.911 121.482,38.384 121.592,38.825 C121.699,39.271 121.857,39.696 122.074,40.095 C122.292,40.502 122.551,40.872 122.846,41.207 C123.135,41.54 123.468,41.843 123.843,42.114 C124.221,42.388 124.632,42.628 125.073,42.842 C125.513,43.056 125.982,43.233 126.481,43.382 C126.979,43.531 127.497,43.649 128.027,43.719 C128.556,43.792 129.1,43.831 129.662,43.831 L129.662,43.831 Z M85.281,32.991 C85.369,33.69 85.499,34.353 85.675,34.989 C85.888,35.767 86.169,36.501 86.516,37.194 C86.863,37.888 87.251,38.524 87.689,39.097 C88.125,39.671 88.61,40.195 89.148,40.669 C89.688,41.143 90.258,41.558 90.852,41.915 C91.446,42.271 92.079,42.572 92.753,42.821 L92.753,42.823 C93.413,43.067 94.093,43.255 94.793,43.378 C95.491,43.501 96.206,43.563 96.938,43.563 C98.112,43.563 99.198,43.453 100.194,43.241 C101.187,43.025 102.096,42.703 102.916,42.276 C104.593,41.403 106.125,40.251 107.516,38.816 L107.834,38.489 L108.174,38.795 L111.386,41.673 L111.735,41.989 L111.424,42.342 C110.534,43.346 109.578,44.249 108.569,45.052 L108.566,45.052 C107.552,45.858 106.468,46.566 105.333,47.167 C104.176,47.778 102.886,48.24 101.458,48.544 C100.04,48.849 98.487,49 96.807,49 C94.378,49 92.084,48.551 89.927,47.653 C88.853,47.21 87.842,46.668 86.899,46.035 C85.956,45.405 85.084,44.681 84.279,43.866 C83.476,43.054 82.756,42.153 82.118,41.171 C81.483,40.191 80.931,39.133 80.462,37.987 C79.992,36.841 79.64,35.638 79.406,34.38 C79.17,33.116 79.052,31.804 79.052,30.44 C79.052,27.888 79.477,25.478 80.322,23.21 C80.745,22.077 81.254,21.02 81.842,20.036 C82.429,19.053 83.108,18.14 83.861,17.301 C84.623,16.458 85.455,15.706 86.354,15.048 C87.254,14.388 88.229,13.815 89.274,13.334 C90.322,12.854 91.421,12.489 92.565,12.247 C93.708,12.003 94.899,11.885 96.136,11.885 C98.749,11.885 101.095,12.38 103.168,13.37 C104.201,13.862 105.156,14.45 106.034,15.122 C106.91,15.8 107.706,16.565 108.418,17.413 C109.133,18.261 109.759,19.187 110.3,20.188 C110.831,21.181 111.286,22.251 111.655,23.399 C112.023,24.546 112.296,25.725 112.476,26.94 C112.659,28.159 112.748,29.417 112.748,30.71 L112.748,31.479 C112.748,31.626 112.741,31.796 112.73,31.987 C112.72,32.167 112.703,32.362 112.68,32.568 L112.635,32.991 L85.281,32.991 L85.281,32.991 Z M106.527,27.894 C106.461,27.309 106.366,26.736 106.238,26.183 C106.079,25.467 105.867,24.765 105.605,24.08 C105.344,23.396 105.039,22.757 104.695,22.167 C104.35,21.571 103.953,21.016 103.51,20.5 C103.076,19.989 102.591,19.534 102.059,19.13 C101.533,18.727 100.95,18.376 100.319,18.075 C99.696,17.78 99.025,17.56 98.309,17.409 C97.593,17.261 96.82,17.187 96.002,17.187 C94.597,17.187 93.272,17.462 92.042,18.015 C91.427,18.292 90.843,18.624 90.3,19.015 C89.756,19.403 89.245,19.851 88.778,20.351 L88.776,20.351 C88.305,20.854 87.873,21.405 87.481,22 C87.092,22.597 86.738,23.243 86.42,23.938 C86.108,24.628 85.85,25.348 85.651,26.095 C85.497,26.676 85.372,27.278 85.283,27.894 L106.527,27.894 L106.527,27.894 Z M165.851,18.752 L159.132,18.752 L159.132,13.247 L165.851,13.247 L165.851,4.701 L171.958,4.701 L171.958,13.247 L179.149,13.247 L179.149,18.752 L171.958,18.752 L171.958,37.875 C171.958,38.89 172.083,39.748 172.335,40.445 C172.568,41.108 172.923,41.629 173.383,41.991 C173.821,42.342 174.327,42.61 174.899,42.806 C175.484,42.999 176.131,43.116 176.846,43.15 L177.295,43.171 L177.295,48.763 L176.839,48.78 C176.577,48.79 176.329,48.797 176.102,48.797 C175.395,48.797 174.705,48.748 174.029,48.657 L174.029,48.655 C173.358,48.566 172.707,48.428 172.083,48.241 C171.447,48.053 170.856,47.807 170.308,47.507 C169.757,47.206 169.25,46.847 168.786,46.432 C168.324,46.019 167.909,45.536 167.548,44.995 C167.188,44.458 166.877,43.858 166.622,43.206 C166.368,42.55 166.174,41.833 166.046,41.048 C165.914,40.269 165.851,39.436 165.851,38.546 L165.851,18.752 L165.851,18.752 Z M37.46,0.196 L43.223,0.196 L43.223,21.193 L69.335,21.193 L69.335,0.196 L75.575,0.196 L75.575,48.193 L69.335,48.193 L69.335,27.098 L43.223,27.098 L43.223,48.193 L36.986,48.193 L36.986,0.196 L37.46,0.196 L37.46,0.196 Z" id="Fill-1" fill="#FFFFFF" mask="url(#mask-2)"></path>
                <path d="M6.233,27.894 C6.322,27.278 6.446,26.676 6.602,26.095 C6.799,25.348 7.058,24.628 7.369,23.938 C7.687,23.243 8.042,22.597 8.431,22 C8.823,21.405 9.254,20.854 9.726,20.351 L9.729,20.351 C10.196,19.851 10.705,19.403 11.25,19.015 C11.792,18.624 12.375,18.292 12.991,18.015 C14.222,17.462 15.545,17.187 16.95,17.187 C17.771,17.187 18.541,17.261 19.256,17.409 C19.975,17.56 20.646,17.78 21.269,18.075 C21.899,18.376 22.483,18.727 23.01,19.13 C23.54,19.534 24.025,19.989 24.46,20.5 C24.903,21.016 25.298,21.571 25.645,22.167 C25.988,22.757 26.293,23.396 26.555,24.08 C26.817,24.765 27.029,25.467 27.188,26.183 C27.315,26.736 27.411,27.309 27.478,27.894 L6.233,27.894 L6.233,27.894 Z M32.605,23.399 C32.237,22.251 31.78,21.181 31.249,20.188 C30.708,19.187 30.082,18.261 29.368,17.413 C28.656,16.565 27.86,15.8 26.983,15.122 C26.106,14.45 25.15,13.862 24.117,13.37 C22.044,12.38 19.698,11.885 17.084,11.885 C15.85,11.885 14.657,12.003 13.515,12.247 C12.372,12.489 11.271,12.854 10.224,13.334 C9.177,13.815 8.205,14.388 7.302,15.048 C6.404,15.706 5.572,16.458 4.812,17.301 C4.058,18.14 3.378,19.053 2.792,20.036 C2.204,21.02 1.694,22.077 1.27,23.21 C0.425,25.478 0,27.888 0,30.44 C0,31.804 0.12,33.116 0.354,34.38 C0.587,35.638 0.941,36.841 1.412,37.987 C1.878,39.133 2.431,40.191 3.067,41.171 C3.704,42.153 4.426,43.054 5.229,43.866 C6.032,44.681 6.906,45.405 7.846,46.035 C8.791,46.668 9.8,47.21 10.875,47.653 C13.033,48.551 15.326,49 17.756,49 C19.437,49 20.99,48.849 22.408,48.544 C23.834,48.24 25.125,47.778 26.283,47.167 C27.418,46.566 28.5,45.858 29.516,45.052 L29.52,45.052 C30.528,44.249 31.483,43.346 32.374,42.342 L32.686,41.989 L32.336,41.673 L29.123,38.795 L28.784,38.489 L28.465,38.816 C27.075,40.251 25.543,41.403 23.866,42.276 C23.045,42.703 22.136,43.025 21.146,43.241 C20.148,43.453 19.062,43.563 17.887,43.563 C17.155,43.563 16.44,43.501 15.743,43.378 C15.042,43.255 14.36,43.067 13.702,42.823 L13.702,42.821 C13.029,42.572 12.396,42.271 11.802,41.915 C11.204,41.558 10.638,41.143 10.097,40.669 C9.559,40.195 9.074,39.671 8.639,39.097 C8.201,38.524 7.812,37.888 7.464,37.194 C7.118,36.501 6.835,35.767 6.622,34.989 C6.45,34.353 6.318,33.69 6.23,32.991 L33.584,32.991 L33.63,32.568 C33.652,32.362 33.669,32.167 33.68,31.987 C33.69,31.796 33.697,31.626 33.697,31.479 L33.697,30.71 C33.697,29.417 33.609,28.159 33.425,26.94 C33.245,25.725 32.972,24.546 32.605,23.399 L32.605,23.399 Z" id="Fill-3" fill="#FFFFFF" mask="url(#mask-2)"></path>
            </g>
            <path d="M217.839,5.672 L218.764,5.672 C219.518,5.672 219.659,5.141 219.659,4.833 C219.659,4.022 219.099,4.022 218.791,4.022 L217.839,4.022 L217.839,5.672 L217.839,5.672 Z M216.72,3.07 L218.764,3.07 C219.462,3.07 220.833,3.07 220.833,4.637 C220.833,5.729 220.135,5.952 219.715,6.092 C220.525,6.148 220.582,6.68 220.693,7.435 C220.75,7.912 220.833,8.723 221.001,9.003 L219.742,9.003 C219.715,8.723 219.518,7.212 219.518,7.127 C219.434,6.792 219.322,6.624 218.902,6.624 L217.868,6.624 L217.868,9.003 L216.72,9.003 L216.72,3.07 L216.72,3.07 Z M214.27,6.023 C214.27,8.485 216.259,10.472 218.693,10.472 C221.156,10.472 223.143,8.443 223.143,6.023 C223.143,3.559 221.127,1.601 218.693,1.601 C216.286,1.601 214.27,3.532 214.27,6.023 L214.27,6.023 Z M223.995,6.037 C223.995,8.947 221.618,11.325 218.707,11.325 C215.824,11.325 213.418,8.975 213.418,6.037 C213.418,3.042 215.88,0.748 218.707,0.748 C221.561,0.748 223.995,3.042 223.995,6.037 L223.995,6.037 Z" id="Fill-5" fill="#FFFFFF"></path>
        </g>
    </g>
</svg>